<svg width="146" height="39" viewBox="0 0 146 39" fill="none" xmlns="http://www.w3.org/2000/svg">
<path d="M43.9464 27.5317C42.3041 27.5317 40.4793 26.9539 39.0195 25.7982L40.2056 24.0039C41.4525 24.9466 42.8211 25.4332 44.0072 25.4332C45.1629 25.4332 45.8015 24.9466 45.8015 24.1863V24.1559C45.8015 23.2435 44.585 22.9394 43.2165 22.544C41.5134 22.0574 39.5974 21.358 39.5974 19.1378V19.1074C39.5974 16.9177 41.4221 15.5796 43.7335 15.5796C45.1933 15.5796 46.7747 16.0966 47.9912 16.8873L46.9268 18.7729C45.8015 18.1038 44.6154 17.678 43.6422 17.678C42.6082 17.678 42.0304 18.1646 42.0304 18.8337V18.8641C42.0304 19.6853 43.2773 20.0502 44.6459 20.476C46.349 20.993 48.2345 21.7837 48.2345 23.8518V23.8822C48.265 26.3152 46.349 27.5317 43.9464 27.5317Z" fill="#222222"/>
<path d="M58.0277 15.7009H60.6736V27.2881H58.0277V25.4938C57.2674 26.5886 56.2029 27.5314 54.4086 27.5314C51.7931 27.5314 50.2725 25.7675 50.2725 23.0608V15.7009H52.9184V22.3005C52.9184 24.0948 53.8307 25.1288 55.4122 25.1288C56.9632 25.1288 58.0277 24.0644 58.0277 22.2396V15.7009Z" fill="#222222"/>
<path d="M70.0408 27.562C68.1248 27.562 66.9083 26.5888 66.1176 25.5244V30.8466H63.4717V15.7011H66.1176V17.6475C66.9691 16.431 68.1856 15.4882 70.0408 15.4882C72.7779 15.4882 75.4542 17.6475 75.4542 21.5403C75.4542 25.3723 72.8083 27.562 70.0408 27.562ZM69.4325 17.7692C67.6382 17.7692 66.0567 19.229 66.0567 21.5099C66.0567 23.7909 67.6382 25.2507 69.4325 25.2507C71.2573 25.2507 72.7475 23.8213 72.7475 21.5099C72.7475 19.229 71.2269 17.7692 69.4325 17.7692Z" fill="#222222"/>
<path d="M82.9963 25.4028C84.304 25.4028 85.2164 24.9162 86.1288 24.0342L87.6798 25.4028C86.585 26.7105 85.0644 27.5621 82.9355 27.5621C79.5901 27.5621 76.9746 25.1291 76.9746 21.51C76.9746 18.1646 79.3164 15.4579 82.6314 15.4579C86.3113 15.4579 88.1969 18.3471 88.1969 21.7229C88.1969 21.9662 88.1664 22.179 88.1664 22.4528H79.6509C79.955 24.3383 81.2628 25.4028 82.9963 25.4028ZM85.5814 20.6888C85.3989 18.9857 84.3953 17.6476 82.6314 17.6476C81.0195 17.6476 79.8638 18.8945 79.6205 20.6888H85.5814Z" fill="#222222"/>
<path d="M93.0023 27.3187H90.3564V15.7011H93.0023V18.3166C93.7322 16.5831 95.0704 15.397 97.108 15.4882V18.2862H96.956C94.6142 18.2862 93.0023 19.8068 93.0023 22.8785V27.3187Z" fill="#222222"/>
<path d="M105.623 27.562C103.707 27.562 102.49 26.5888 101.7 25.5244V30.8466H99.0537V15.7011H101.7V17.6475C102.551 16.431 103.768 15.4882 105.623 15.4882C108.36 15.4882 111.036 17.6475 111.036 21.5403C111.036 25.3723 108.39 27.562 105.623 27.562ZM105.015 17.7692C103.22 17.7692 101.639 19.229 101.639 21.5099C101.639 23.7909 103.22 25.2507 105.015 25.2507C106.839 25.2507 108.33 23.8213 108.33 21.5099C108.33 19.229 106.809 17.7692 105.015 17.7692Z" fill="#222222"/>
<path d="M118.548 25.4028C119.856 25.4028 120.768 24.9162 121.681 24.0342L123.232 25.4028C122.137 26.7105 120.616 27.5621 118.487 27.5621C115.142 27.5621 112.526 25.1291 112.526 21.51C112.526 18.1646 114.868 15.4579 118.183 15.4579C121.863 15.4579 123.749 18.3471 123.749 21.7229C123.749 21.9662 123.718 22.179 123.718 22.4528H115.203C115.537 24.3383 116.845 25.4028 118.548 25.4028ZM121.133 20.6888C120.951 18.9857 119.947 17.6476 118.183 17.6476C116.571 17.6476 115.416 18.8945 115.172 20.6888H121.133Z" fill="#222222"/>
<path d="M131.261 25.4028C132.569 25.4028 133.481 24.9162 134.393 24.0342L135.944 25.4028C134.85 26.7105 133.329 27.5621 131.2 27.5621C127.855 27.5621 125.239 25.1291 125.239 21.51C125.239 18.1646 127.581 15.4579 130.896 15.4579C134.576 15.4579 136.461 18.3471 136.461 21.7229C136.461 21.9662 136.431 22.179 136.431 22.4528H127.916C128.25 24.3383 129.558 25.4028 131.261 25.4028ZM133.846 20.6888C133.664 18.9857 132.66 17.6476 130.896 17.6476C129.284 17.6476 128.128 18.8945 127.885 20.6888H133.846Z" fill="#222222"/>
<path d="M141.297 27.3187H138.651V15.7011H141.297V18.3166C142.027 16.5831 143.365 15.397 145.403 15.4882V18.2862H145.251C142.909 18.2862 141.297 19.8068 141.297 22.8785V27.3187Z" fill="#222222"/>
<path d="M30.6555 31.5762C29.3173 31.3025 28.04 30.9983 26.9756 30.7855L25.1812 30.3901L25.3941 28.5653C25.3941 28.4741 25.4245 28.3829 25.4245 28.2916C25.4245 27.8963 25.3637 27.5313 25.2116 27.1664L24.7859 26.1932L25.3637 25.2808C25.6982 24.7334 25.8503 24.1251 25.8503 23.4256C25.8503 22.6957 25.6374 22.057 25.242 21.5096L24.5426 20.5668L24.9987 19.472C25.1812 19.0462 25.2725 18.59 25.2725 18.1338C25.2725 17.4952 25.2725 15.5792 22.2616 14.4235C21.8358 14.2714 20.9843 14.0281 19.4028 13.9369L16.1487 13.724L17.6997 10.8956C18.9466 8.64509 19.6461 6.60745 19.6461 5.17806C19.6461 3.87032 19.2204 2.71464 18.2472 2.31927C14.8714 0.85947 12.4688 3.14041 10.7657 5.93837C9.39709 8.21932 7.69398 11.1389 6.65995 13.2982C4.43983 17.9818 1.15527 21.3576 1.15527 26.0411C1.15527 30.2989 4.01406 33.6442 9.24502 35.4082C15.6621 37.5675 25.242 38.1453 29.4086 38.1453C32.389 38.1453 34.0313 36.9896 34.0313 34.8607C34.0313 32.6406 31.9328 31.8499 30.6555 31.5762Z" fill="#FFD338"/>
<path d="M29.3177 29.6908C25.8507 28.9305 22.8703 28.2918 22.8703 28.2918C23.3873 27.9269 23.9347 27.1666 23.9347 26.2238C23.9347 25.1289 23.3569 24.4903 22.9007 24.1557C23.5089 23.6995 24.3301 22.8784 24.3301 21.3882C24.3301 19.7763 23.2352 18.9552 22.6574 18.5598C23.1136 18.134 23.7522 17.2825 23.7522 16.0964C23.7522 13.9979 22.1404 13.0551 20.8326 12.5381C19.7682 12.1427 17.761 11.9907 15.997 11.9907C13.1078 11.9907 10.4923 12.2036 9.24543 12.2036C7.75521 12.2036 7.93769 11.4433 8.48511 10.7438C8.81965 10.3484 13.047 4.7829 13.8377 3.77928C14.3852 3.04938 15.0238 2.34989 15.5104 2.6236C16.0274 2.89732 15.8145 4.17464 15.2671 5.57362C14.446 7.76333 13.2903 9.16231 13.0166 9.64891L14.963 10.835C15.7233 9.89221 18.1867 5.78651 18.1867 3.14062C18.1867 1.95452 17.7305 0.950909 16.8486 0.403482C15.9666 -0.113532 14.8413 -0.083119 13.8377 0.525133C13.1687 0.920497 12.4996 1.49834 11.9217 2.22824C10.4011 4.17464 7.17737 8.24993 5.99128 9.77056C4.28818 11.9907 5.0789 14.7278 8.698 14.7278C9.97533 14.7278 14.1419 14.4237 15.7537 14.4237C17.6089 14.4237 18.5213 14.5149 19.1599 14.6062C20.3764 14.7886 21.0759 15.3361 21.0759 16.066C21.0759 16.583 20.8326 16.9479 20.4068 17.2521C19.9811 17.5562 19.5857 18.0124 19.5857 18.651C19.5857 19.4114 20.2852 19.7155 20.7414 20.0196C21.3496 20.415 21.7146 20.6887 21.7146 21.3273C21.7146 21.9052 21.2888 22.2397 20.8022 22.6047C20.4069 22.9088 19.8898 23.2433 19.8898 23.9428C19.8898 24.5815 20.346 24.8856 20.6502 25.1289C20.9543 25.3722 21.2888 25.6459 21.2888 26.1629C21.2888 26.68 21.0455 26.9233 20.4373 27.2882C19.9507 27.5619 19.2512 28.0789 19.2512 28.8088C19.2512 29.63 19.829 29.9949 20.5285 30.1774C22.2012 30.5728 27.1889 31.6372 28.892 32.0326C29.4394 32.1542 29.9868 32.3367 29.9868 32.7929C29.9868 33.2491 29.2569 33.462 28.2229 33.462C24.6342 33.462 14.6589 32.7321 8.78924 30.6944C4.80519 29.3563 2.61548 26.8929 2.61548 23.9428C2.61548 21.3882 4.31859 19.1072 6.17376 17.7995L4.50106 16.0964C1.82476 17.9515 0 20.9016 0 24.0037C0 27.5923 2.12888 31.2419 7.99851 33.2187C14.2331 35.3171 23.6914 35.9558 28.1012 35.9558C31.1121 35.9558 32.5719 34.7089 32.5719 32.8233C32.5415 31.029 31.0817 30.0558 29.3177 29.6908Z" fill="#222222"/>
</svg>
